<svg id="Layer_1" data-name="Layer 1" xmlns="http://www.w3.org/2000/svg" viewBox="0 0 366.35 351.58"><title>UEFA Champions League logo - Brandlogos.net</title><path d="M384,302.54h0c-5,7.65-10.08,15.82-14.67,24a162.2,162.2,0,0,1-4.92-30c-8.25-2.79-16.77-6-25-9.7,0,0,9.5-4.81,24.67-10.69a134.79,134.79,0,0,1,4.37-28.82s5,9.19,14.07,22.23c9.57-3.14,20.24-6.2,31.55-8.7,0,0-8.39,10.41-19,25.48A281,281,0,0,0,416,310s-13.68-2.39-32-7.46m83.77-4.65a23.68,23.68,0,0,1-10.79,8.66,216.82,216.82,0,0,0-2.53-23.63,286.07,286.07,0,0,1-11.75,27.32A110.1,110.1,0,0,1,416,310c7.25,8.67,12.87,13.83,17.41,17.31a164.62,164.62,0,0,1-11.74,17.6,63.78,63.78,0,0,0,23.11-10.08,23.1,23.1,0,0,1,6.67,6.78s3.89-5.51,5.22-18.26a56.71,56.71,0,0,0,11.06-25.46m-4.4-34.74a60.36,60.36,0,0,0-17.2-22.4c-5.74-12.06-12.36-17.63-12.36-17.63a18.7,18.7,0,0,1-.9,9.17,82.13,82.13,0,0,0-27.35-8.08,116.46,116.46,0,0,1,22,19.16A118.45,118.45,0,0,1,414,260.89a128.36,128.36,0,0,1,24.92-3.43,172.79,172.79,0,0,1,15.45,25.46,102.78,102.78,0,0,0-2.3-24.57c8.51,1.63,11.22,4.8,11.22,4.8m-57.81-38.94a105.3,105.3,0,0,0-19.76-7.6,40.11,40.11,0,0,1,15.18-8.33,80.84,80.84,0,0,0-32.57,5.27c-13.57-1.09-22.21,1.27-22.21,1.27,2,1.53,3.75,4.26,5.5,7.54a74,74,0,0,0-17.28,16,119.35,119.35,0,0,1,21.47-8c.79,1.45,1.63,2.9,2.53,4.31a82,82,0,0,0,10,12.66,58.06,58.06,0,0,1,8.82-21.3,185.15,185.15,0,0,1,28.28-1.84m-87.12,27.53a148.09,148.09,0,0,1,16-13.34A55.42,55.42,0,0,0,322.26,240a65.72,65.72,0,0,1,8.67-15.48s-26.19,18.63-31.15,52.1c0,0,2.19-6,9.65-15.18a52.17,52.17,0,0,0,6.37,10.82,86.36,86.36,0,0,1,2.59-20.5m21,35.12A147.16,147.16,0,0,0,317.6,289a148.82,148.82,0,0,1-1.8-16.72,73,73,0,0,0-9.2,19.61c-6.33,2.35-7.93,4.62-7.93,4.62a28.87,28.87,0,0,0,5.46,9.73c-.78,14.57,3.93,24.19,3.93,24.19a50.92,50.92,0,0,1,5.84-14.73,109,109,0,0,0,15.43,10.26,95.3,95.3,0,0,1-8.23-20.77,119.42,119.42,0,0,1,18.27-18.29m45,74.43a169.77,169.77,0,0,1-18.54-9.19,192.1,192.1,0,0,1,3.48-25.51,115.57,115.57,0,0,1-19.92,15.23,187.78,187.78,0,0,1-20-15.9,128,128,0,0,0,9.49,21c-5.93,2.21-12,3.25-17.63,1.89,0,0,6.6,8.22,26.95,11.74,5.65,6.68,12.52,12.21,20.54,14.13,0,0-2.41-2.65-3-12.6a168.85,168.85,0,0,0,18.61-.84m36.89-.84a45.15,45.15,0,0,0,.43-15.53,104.13,104.13,0,0,1-14.88,17.33,116.68,116.68,0,0,1-22.44-1,54.09,54.09,0,0,0,12.1,8.86c-8.55,5.3-14.29,5.76-14.29,5.76,37.47.8,60-23.67,60-23.67a60,60,0,0,1-20.9,8.2m43.42,142.19h0c10.08,0,18.68-7.14,18.68-19,0-10-6.92-19.13-18.4-19.13-10.36,0-18.29,7.75-18.29,18.44,0,10.3,6.8,19.69,18,19.69M464,469.9h0c8.43,0,11,9.56,11,16.08,0,6.14-3.32,11.26-9.06,11.26-8,0-11-9.62-11-16.2,0-4.5,2.08-11.13,9.06-11.13m-68,27.4h0V470.56l3.49-.37c4.95,0,8.09,1.79,8.09,6.86,0,4.67-2.3,8-8.2,8-.74,0-1.46-.17-2-.17s-.83,0-.83.51c0,1.19,4.05,2.59,6.81,2.59,7.26,0,12.54-4.28,12.54-11.26,0-6.52-3.77-11.48-14.18-11.48H385.16v1.56c1.91.06,2.58.79,2.58,2.37v27.51c0,2.64-.39,3.6-2.58,4v1.4c2.47-.16,4.67-.34,6.75-.34s4.28.18,7.82.34v-1.4c-3.27-.62-3.66-1.36-3.66-3.38m30.78-28.47h0v29.48c0,1.57-.67,2.3-2.58,2.37v1.4c2.48-.16,4.67-.34,6.75-.34s4.28.18,6.75.34v-1.4c-1.9-.06-2.59-.79-2.59-2.37V468.82c0-1.58.69-2.3,2.59-2.36V465c-2.48.17-4.67.34-6.75.34s-4.27-.16-6.75-.34v1.48c1.91.06,2.58.78,2.58,2.36m67.75,0h0v29.48c0,1.58-.68,2.31-2.59,2.37V502c1.8-.16,3.66-.33,5.52-.33s3.55.17,5.41.33v-1.4c-1.53,0-3.38-.22-3.38-3.16V473h.11l18.67,29.06h6V468.8c0-1.58.68-2.31,2.58-2.36V465c-1.8.17-3.65.34-5.5.34s-3.55-.17-5.4-.34v1.48c1.51,0,3.37.23,3.37,3.15v20.55h-.11L503.72,465a25.12,25.12,0,0,1-4.94.34c-2.09,0-4.29-.17-6.76-.34v1.48c1.92.05,2.59.78,2.59,2.36m43.81,20.49H537c.28,3.36.47,7.36.47,11.93A38.2,38.2,0,0,0,550,503.3c9.45,0,17.14-4.06,17.14-11.7s-5.44-9.67-11.29-11.34l-6.08-1.74c-2.38-.7-5.16-1.63-5.16-4.81,0-4,4.86-4.92,7.77-4.92,5.21,0,9.55,2.5,10.75,7.82h1.46c-.24-3-.46-6.54-.46-10.72A32.19,32.19,0,0,0,553.4,464c-8.63,0-17.33,2.73-17.33,11.69,0,6.85,5.91,9.33,11.81,11.07L552,488c2.67.81,6.26,1.74,6.26,5.21,0,4.34-4.92,5.33-8.34,5.33-6.2,0-10.35-3-11.49-9.27M245.86,468.82h0v29.48c0,1.57-.67,2.3-2.59,2.36v1.44c2.48-.16,4.68-.33,6.75-.33s4.28.17,6.75.33v-1.44c-1.91-.05-2.59-.79-2.59-2.36v-13h13.62v13c0,1.57-.67,2.3-2.59,2.37v1.43c2.48-.16,4.67-.33,6.76-.33s4.27.17,6.75.33v-1.43c-1.91-.06-2.58-.79-2.58-2.37V468.82c0-1.58.68-2.31,2.58-2.36V465c-2.48.17-4.67.34-6.75.34s-4.28-.16-6.76-.34v1.48c1.92.05,2.59.78,2.59,2.36V480H254.19V468.82c0-1.58.68-2.31,2.59-2.36V465c-2.48.17-4.67.34-6.75.32s-4.27-.15-6.75-.32v1.48c1.92.05,2.59.78,2.59,2.36M299.55,486h7.94A106.44,106.44,0,0,1,304.22,473h-.11c-1.3,4.5-3.1,9-4.56,12.94m-13.62,16.1h0v-1.4a3.45,3.45,0,0,0,2.93-2.59l11-28a7.83,7.83,0,0,0,.73-2.18c0-.57-.62-1.47-2.13-1.47V465c1.79.17,3.54.34,5.28.34s3.55-.16,5.29-.34l10.35,32c.84,2.47,1.69,3.21,3.37,3.66v1.4c-2.37-.16-4.78-.34-7.15-.34s-4.84.18-7.26.34v-1.4c2.08-.4,2.81-.85,2.81-2.15a9.69,9.69,0,0,0-.56-2.81l-1.8-5.45h-11l-2.48,6.64a5.9,5.9,0,0,0-.45,2c0,1,.79,1.69,2.65,1.81v1.4c-1.92-.16-3.89-.34-5.8-.34s-3.89.18-5.86.34m48.22-28h0l-1.25,23.51c-.11,2.36-1,2.87-3.21,3v1.4c1.75-.16,3.83-.34,5.91-.34s4.22.18,6.47.34v-1.4c-3.37-.4-3.66-1-3.66-3.83,0-1.52.11-3,.17-6l.46-16.49h.11l10.75,28h4.73L364,474.73h.11l1.3,16.77c.16,1.85.33,4.39.33,5.74,0,2.58-.74,3.09-3.49,3.43v1.4c2.31-.16,4.73-.34,7.2-.34s4.9.18,7.32.34v-1.4c-1.13-.18-2.76-.4-2.88-1.86l-1.79-24c-.17-1.91-.4-4.44-.4-6s.28-2.14,2.25-2.3V465c-1.91.17-3.88.34-5.85.34s-3.88-.16-5.85-.34l-8.83,26.09L343.59,465c-2,.17-4.06.34-6.08.34a56.8,56.8,0,0,1-5.73-.34v1.48c2.13.27,2.53.5,2.53,2.25,0,2.25-.11,3.82-.16,5.4M234.8,500h0l.72-7c-3.35,2.82-8.35,4.73-11.83,4.73-8.2,0-14-8-14-15.12,0-9.4,5.47-15,12.54-15,5.22,0,8.85,2.75,9.84,8h1.63c-.31-4.09-.54-8.2-.54-12.46a30,30,0,0,0-10.18-1.53c-14.54,0-22.11,10.53-22.11,21.45,0,10.66,7.57,21.07,21,21.07,3.6,0,9.13-1.18,13-4.13m60.91,22.4h0v22.64c0,1.21-.52,1.78-2,1.84v1.18h21.6a50.51,50.51,0,0,1,1-8.43H315c-.74,3.31-1.91,4.61-4.78,4.61h-8V523c0-1.21.31-2.3,2.53-2.38v-1.2c-1.26.13-3.91.26-5.74.26-1.61,0-3.31-.13-5.21-.26v1.2c1.48,0,2,.6,2,1.82m27.64.14h0v22.5c0,1.21-.52,1.78-2,1.84v1.18h23c0-2.4.14-4.7.52-8.26h-1.44c-.74,3.65-1.48,4.43-3.83,4.43h-9.77v-9h5.77c2,0,2.26.65,2.52,2.22h1.19c-.13-1-.26-3-.26-4.13s.13-3,.26-4.13h-1.19c-.26,1.56-.57,2.22-2.52,2.22h-5.77V523h9.29c2.35,0,3,.82,3.38,3.22h1.19c-.21-2.36-.3-4.29-.35-6.69h-22v1.19c1.48,0,2,.61,2,1.83M350,546.9h0v1.18c1.52-.13,3-.26,4.52-.26s3,.14,4.47.26V546.9c-1.44-.09-2-.61-2-1.39a4.6,4.6,0,0,1,.35-1.51l1.91-5.11h8.47l1.39,4.2a7.33,7.33,0,0,1,.44,2.16c0,1-.57,1.34-2.17,1.65v1.18c1.87-.13,3.74-.26,5.61-.26s3.69.14,5.52.26V546.9c-1.31-.34-2-.91-2.62-2.81l-8-24.71c-1.35.13-2.74.26-4.09.26s-2.69-.13-4.08-.26v1.17c1.17,0,1.64.7,1.64,1.13a5.78,5.78,0,0,1-.56,1.7l-8.51,21.52a2.64,2.64,0,0,1-2.26,2m16.64-11.3h-6.13c1.13-3.07,2.52-6.5,3.53-10h.08a83.62,83.62,0,0,0,2.53,10m35.06,2.33h0V541c0,2-1.69,3.43-4.78,3.43-5,0-8.09-6.08-8.09-11.47,0-5.6,3-10.23,9-10.23,3.6,0,7.27,1.91,7.83,5.77H407c-.17-3-.26-5.44-.26-7.57a16.67,16.67,0,0,0-8.57-2c-9.38,0-15.68,5.71-15.68,15.13,0,7.82,5.22,14.56,13.38,14.56a12,12,0,0,0,8.56-3.48l1,2.91h2.52v-9.72c0-2,.79-2.35,2.31-2.4v-1.36c-2,.13-3.86.26-5.82.26s-3.61-.14-5.38-.26v1.45c2,0,2.74.13,2.74,1.87m17.21-15.51h0v16.23c0,7.43,4.17,10,12,10s12-2.56,12-10.6V522.42c0-1.22.51-1.78,2-1.82v-1.2c-1.4.13-3.17.26-5,.26-2.26,0-4-.13-5.78-.26v1.2c1.87.08,2.35.42,2.35,2.12V539c0,4.82-2,5.87-5.57,5.87s-5.55-1-5.55-5.87V522.72c0-1.69.47-2,2.34-2.12v-1.2c-1.74.13-3.52.26-5.78.26-1.82,0-3.6-.13-5-.26v1.2c1.48,0,2,.6,2,1.82m35.17.14h0v22.5c0,1.21-.52,1.78-2,1.84v1.18h22.94c.05-2.4.14-4.7.53-8.26h-1.45c-.73,3.65-1.48,4.43-3.82,4.43h-9.78V535.1h5.78c2,0,2.25.65,2.52,2.21H470c-.13-1-.25-3-.25-4.12s.12-3,.25-4.13h-1.18c-.26,1.56-.57,2.21-2.52,2.21h-5.78V523h9.3c2.34,0,3,.82,3.39,3.22h1.19c-.22-2.36-.31-4.29-.35-6.69H452.11v1.19c1.48,0,2,.61,2,1.83m28.21,37.22h0a5.19,5.19,0,1,1,5.25-5.2,5.19,5.19,0,0,1-5.25,5.2m-4.23-5.2h0a4.22,4.22,0,1,0,4.23-4.31,4.2,4.2,0,0,0-4.23,4.31m3.13.41h0v2.6h-.9v-6h2.28c1.42,0,2.11.52,2.11,1.7a1.56,1.56,0,0,1-1.54,1.65l1.69,2.64h-1l-1.58-2.6Zm0-.78h1.1c.76,0,1.45,0,1.45-1,0-.74-.67-.88-1.31-.88h-1.24Zm-87.15-122.9-2.81-.73a1.63,1.63,0,0,1-1.24-2.13l3.81-14.55c1.31-4.94,5-5.88,9-4.84l8.61,2.26-1.11,4.23L402,413.37c-2.16-.57-3.16-.2-3.79,2.21l-.58,2.18L408,420.48l-1.09,4.16-10.4-2.72Zm-31.24-18.14,1.06,5.24,10.52-2.15.86,4.22-10.52,2.14.45,2.21c.5,2.44,1.47,2.86,3.65,2.42l8.46-1.72.87,4.28-8.71,1.77c-4,.83-7.7-.32-8.7-5.34l-3-14.73a1.63,1.63,0,0,1,1.36-2.06l14.33-2.92.88,4.29ZM343.51,439a5.65,5.65,0,0,0,2.21-3.75c.16-1.67-.31-2.82-1.9-4.78l-8.11-10,3.6-2.91,8.86,10.9a9.24,9.24,0,0,1,2.33,7.06,11.51,11.51,0,0,1-11.81,9.6,9.25,9.25,0,0,1-6.43-3.72l-8.86-10.91,3.59-2.92,8.11,10c1.58,2,2.62,2.64,4.29,2.84a5.62,5.62,0,0,0,4.11-1.39m89.2-16.08a2,2,0,0,0-2.62-.06l-20.38,13.24,4.31,2.41L428.7,429l-2.32,8-1.9-1.47L420.59,438l4.49,3.46-1.31,4.5,3.82,3.51,6.74-23.4a2,2,0,0,0-.73-2.5Zm-50.5,16.2a51.34,51.34,0,0,1,38.68,17.54l2.73-2.4a55,55,0,0,0-82.83,0l2.73,2.4A51.33,51.33,0,0,1,382.2,439.1m0-38.33a89.51,89.51,0,0,1,64.22,27l2.59-2.54a93.39,93.39,0,0,0-133.63,0l2.6,2.54a89.5,89.5,0,0,1,64.22-27" transform="translate(-200.83 -208.21)" style="fill:#221f1f"/></svg>