<?xml version="1.0" encoding="UTF-8"?><svg id="Layer_1" xmlns="http://www.w3.org/2000/svg" viewBox="0 0 348.14 491.41"><defs><style>.cls-1{fill:#ff6900;}</style></defs><path d="M171.62,3.47c4.54-1.04,8.9-2.82,13.53-3.47.46,1.63.31,3.32-.02,4.96-2.31,12.52-4.03,25.15-6.12,37.71-2.01,15.19-4.72,30.29-6.67,45.49-1.02,5.96-2.05,11.93-2.86,17.93-.72,4.96-1.79,9.87-2.32,14.87-.35,2.9-.44,5.9-1.69,8.59-1.58-3.37-2.09-7.09-2.91-10.69-1.43-6.71-3.13-13.35-4.54-20.06-1.71-6.37-3.16-12.79-4.47-19.24-1.61-6.57-3.04-13.19-4.4-19.82-3.15-10.63-5.29-21.52-7.9-32.29-.76-4.87-2.89-9.37-3.59-14.24,11.2-3.65,22.69-6.35,33.97-9.73Z"/><path d="M198.49,1.51c3.1,1.32,5.94,3.15,8.71,5.06,5.24,3.34,10.43,6.76,15.74,10,1.43.97,3.69,2.11,2.78,4.22-4.28,14.03-7.59,28.32-11.63,42.41-2.95,9.77-5.35,19.69-8.01,29.54-5.94,21.72-11.81,43.47-17.71,65.21-.68,2.72-1.75,5.59-.7,8.37,4.93,16.28,10.27,32.44,15.51,48.63,1.03,3.31,2.59,6.46,3.17,9.9-4.85.66-9.75.41-14.64.46-16.59,0-33.19.1-49.78-.02-1.91-.37-4.4.38-5.89-1.09,1.71-7.45,4.77-14.53,6.94-21.85,3.69-11.55,7.64-23,11.06-34.64.86-2.99-.56-5.96-1.18-8.85-6.58-25.54-13.12-51.09-19.57-76.66-3.1-11.99-6.2-23.98-8.96-36.05-.64-2.52-1.87-4.9-2.1-7.51.35-2.6,1.55-4.99,2.18-7.52.84-2.79,1.11-5.82,2.61-8.38,1.26-.33,1.18,1.36,1.55,2.15,2.42,11.74,5.71,23.28,8.27,34.99,2.88,10.52,5.47,21.12,8.07,31.72,1.05,3.91,2.24,7.79,2.99,11.78,2.7,10.96,5.52,21.89,8.29,32.84,2.63,11.94,6.01,23.71,8.33,35.72.53,2.43.66,5.04,1.95,7.24.31-.03.93-.11,1.24-.15,1.75-7.17,2.36-14.57,3.74-21.82,3.53-20.27,7.2-40.51,10.53-60.81,3.12-16.62,5.64-33.34,8.83-49.95,2.07-11.34,3.94-22.72,5.83-34.09.64-3.62.83-7.32,1.88-10.86Z"/><path d="M131.98,236.5c6.91-.62,13.89-.21,20.84-.31,17.17.02,34.33.04,51.49.01,1.93.06,4.3.05,5.55,1.81,2.16,2.78,2.26,6.47,3.67,9.59,1.32,2.92,2.6,5.97,2.66,9.22-2.74.89-5.67.58-8.51.7-22.69.15-45.39.07-68.08.05-4.73-.05-9.52.25-14.2-.62.92-4.24,2.54-8.28,3.62-12.47.92-2.67,1.49-5.54,2.95-7.98Z"/><path class="cls-1" d="M99.25,52.63c3.02-2.9,5.43-6.46,8.95-8.8,1.47,2.46,1.6,5.37,2.39,8.07,1.06,3.82,3.02,7.4,3.62,11.35.44,2.47-1.91,4.04-3.36,5.64-10.78,10.22-21.2,20.84-31.85,31.18-1.26,1.37-2.55,2.95-2.45,4.94-.11,23.68.04,47.36-.03,71.04-.03,1.55.21,3.09.45,4.62,6.08,6.57,12.48,12.82,18.91,19.04,8.07,8.29,16.57,16.14,24.72,24.34-1.96,7.03-4.49,13.9-7.25,20.65-2.47-1.94-4.73-4.15-6.79-6.52-9.86-10.14-19.99-20.01-29.96-30.05-3.94-3.88-7.77-7.88-11.85-11.62-2.74-2.61-5.59-5.16-7.77-8.28-.32-30.22-.14-60.44-.11-90.66-.23-3.14,2.5-5.26,4.38-7.37,12.9-12.29,25.37-25.03,38.01-37.58Z"/><path class="cls-1" d="M232.9,44.34c2.03.59,3.66,2.02,5.07,3.55,5.48,6.34,11.71,11.96,17.54,17.97,8.87,9.05,17.88,17.97,27.1,26.66,1.24,1.13,2.26,2.68,2.04,4.44.01,29.95-.02,59.92.08,89.88.13,1.65-1.19,2.81-2.24,3.89-15.21,14.73-29.99,29.9-45.06,44.77-2.99,2.98-5.76,6.23-9.14,8.8-1.59-2.91-2.2-6.19-3.53-9.21-1.4-3.2-3.03-6.38-3.63-9.85-.44-1.56,1.12-2.49,2-3.49,12.16-11.68,24.09-23.6,36.04-35.48,1.83-1.98,3.86-3.82,5.35-6.07.36-1.55.17-3.17.21-4.75-.07-24.24.02-48.49-.02-72.73-3.33-4-7.23-7.44-10.89-11.12-4.39-4.19-8.57-8.59-12.99-12.75-3.86-3.74-7.89-7.33-11.51-11.32-.83-1.09-2.05-2.16-1.96-3.66.46-4.77,2.6-9.14,3.7-13.77.46-1.96,1.07-3.89,1.84-5.75Z"/><path d="M198.79,305.05l11.23,2.9,1.77-6.86-11.56-3.01c-6.32-1.64-10.66.72-12.2,6.68l-4.73,18.21c-.48,1.48.33,3.08,1.81,3.56.11.03.21.06.32.08l4.29,1.1,3.03-11.76,13,3.36,1.75-6.78-13-3.34.51-1.95c.67-2.57,1.44-2.8,3.75-2.21h.03ZM162.34,295.01l-18.75,3.8c-1.56.24-2.63,1.69-2.39,3.25.01.09.03.18.06.27l3.72,18.42c.36,2.6,1.81,4.92,3.98,6.4,1.46.87,3.13,1.3,4.83,1.26,1.02-.01,2.03-.12,3.03-.33l11.71-2.39-1.41-6.94-11.41,2.31c-2.34.46-3.08.21-3.62-2.41l-.41-1.98,13.18-2.57-1.39-6.86-13.18,2.57-1-4.93,14.41-2.93-1.41-6.94h.05ZM241.77,321.08c.62-1.45.12-3.14-1.18-4.03l-1.13-.87c-1.22-1.03-3-1.03-4.21,0l-26.69,17.26,6.99,3.96,16.98-10.99-2.93,9.89-2.57-1.95-4.44,3.19,5.52,4.14-1.28,4.44,6.22,5.47,8.86-30.49h-.13ZM97.1,315.79c44.34-37.58,109.35-37.58,153.68,0,2.19,1.88,4.29,3.84,6.29,5.88l3.96-4.91c-1.97-1.97-4.02-3.88-6.16-5.73-46.68-39.59-115.15-39.59-161.83,0-2.14,1.85-4.2,3.76-6.16,5.73l3.96,4.91c2-2.02,4.1-3.98,6.29-5.88h-.03ZM173.93,339.42c19.28-.1,37.6,8.37,50.01,23.12l3.83-4.75c-26.33-29.74-71.79-32.51-101.53-6.18-2.18,1.93-4.25,4-6.18,6.18l3.85,4.75c12.41-14.75,30.74-23.22,50.01-23.12ZM122.76,336.67c-1.26,1.11-2.92,1.68-4.6,1.57-1.88-.21-3.01-.98-4.88-3.29l-10.74-13.2-5.65,4.65,11.69,14.38c2.06,2.8,5.2,4.61,8.66,4.98h1.18c3.37-.02,6.61-1.25,9.14-3.47,3.02-2.26,4.99-5.66,5.45-9.4.35-3.46-.78-6.91-3.11-9.5l-11.69-14.38-5.91,4.75,10.74,13.2c1.52,1.39,2.33,3.39,2.21,5.45-.26,1.68-1.19,3.19-2.57,4.19l.08.08ZM129.77,388.59h10.79c5.99,0,8.25,3.08,8.25,7.24s-2.26,7.24-8.25,7.24h-10.79v-14.49ZM150.32,438.91h16.29l-14.13-25.43c6.72-3.31,10.97-10.16,10.94-17.65,0-12.41-10.04-20.27-22.89-20.27h-25.15v63.34h14.49v-22.81h7.71l12.74,22.81ZM110.56,475.9h15.77v-7.71h-15.77v-6.94h17.16v-7.71h-25.69v37.25h26.02v-7.71h-17.57l.08-7.19ZM147.21,476.1l4.34-11.38,4.34,11.38h-8.68ZM147.06,453.73l-15.03,37.07h9.58l2.57-7.04h14.49l2.57,7.04h9.58l-14.85-37.07h-8.91ZM307.32,413.73l7.42-19.45,7.42,19.45h-14.85ZM322.42,375.46h-15.41l-25.69,63.34h16.39l4.62-12.05h24.79l4.62,12.05h16.39l-25.69-63.34h-.03ZM187.72,477.49h11.43v2.57c-2.18,2.37-5.26,3.69-8.48,3.65-6.4,0-11.23-3.75-11.23-11.53s5.14-11.53,10.27-11.53c4.09-.33,7.81,2.36,8.78,6.34l8.09-2.39c-1.9-6.94-7.3-11.58-16.77-11.58-10.58.02-19.15,8.61-19.13,19.19.02,10.56,8.57,19.12,19.13,19.13,6.69.26,13.09-2.78,17.11-8.14v-12.38h-19.32v6.63l.1.05ZM233.83,475.74c0,4.98-2.57,8.04-7.19,8.04s-7.19-3.06-7.19-8.04v-21.99h-8.45v22.48c0,10.27,7.14,15.18,15.64,15.18s15.67-4.91,15.67-15.18v-22.48h-8.45l-.03,21.99ZM255.53,475.89h15.77v-7.71h-15.77v-6.94h17.13v-7.71h-25.69v37.25h26.12v-7.71h-17.57v-7.19h0ZM80.55,453.73h-8.45v37.07h26.02v-7.71h-17.57v-29.36h0ZM106.24,375.46h-14.49v37.63c0,8.5-4.34,13.74-12.3,13.74s-12.3-5.14-12.3-13.74v-37.63h-14.49v38.53c0,17.65,12.2,25.97,26.79,25.97s26.79-8.43,26.79-25.97v-38.53ZM254.66,388.48h9.58c6.42,0,8.96,3.34,8.96,7.96s-2.57,7.96-8.96,7.96h-9.58v-15.93h0ZM240.17,438.8h14.49v-21.35h10.27c12.48,0,22.71-7.24,22.71-20.99s-10.27-20.99-22.71-20.99h-24.79v63.34l.03-.03ZM200.92,387.04c9.04,0,16.18,6.5,16.18,20.06s-7.14,20.09-16.18,20.09-16.18-6.5-16.18-20.09,7.04-20.06,16.08-20.06h.1ZM200.92,440.22c18.62,0,30.64-12.56,30.64-33.08s-12.02-33.08-30.64-33.08-30.64,12.56-30.64,33.08,11.92,33.08,30.54,33.08h.1ZM14.36,413.4h26.97v-13.02H14.36v-11.84h29.31v-13.07H0v63.34h44.52v-13.02H14.26l.1-12.38Z"/></svg>